<svg width="755" height="42" viewBox="0 0 755 42" fill="none" xmlns="http://www.w3.org/2000/svg">
<line x1="10" y1="9" x2="737" y2="9" stroke="#D9D9D9" stroke-width="2"/>
<circle cx="18" cy="8" r="7.5" fill="#D9D9D9" stroke="#D9D9D9"/>
<circle cx="120" cy="8" r="7.5" fill="#D9D9D9" stroke="#D9D9D9"/>
<circle cx="222" cy="8" r="7.5" fill="#D9D9D9" stroke="#D9D9D9"/>
<circle cx="324" cy="8" r="7.5" fill="#D9D9D9" stroke="#D9D9D9"/>
<circle cx="426" cy="8" r="7.5" fill="#D9D9D9" stroke="#D9D9D9"/>
<circle cx="528" cy="8" r="7.5" fill="#D9D9D9" stroke="#D9D9D9"/>
<circle cx="630" cy="8" r="7.5" fill="#D9D9D9" stroke="#D9D9D9"/>
<circle cx="732" cy="8" r="7.5" fill="#D9D9D9" stroke="#D9D9D9"/>
<path d="M4.49707 25.248C5.17578 25.248 5.80566 25.4043 6.38672 25.7168C6.96777 26.0244 7.44385 26.5518 7.81494 27.2988C8.19092 28.0459 8.37891 29.0371 8.37891 30.2725C8.37891 31.5127 8.21533 32.5747 7.88818 33.4585C7.56592 34.3374 7.10205 35.0063 6.49658 35.4653C5.896 35.9194 5.18066 36.1465 4.35059 36.1465C3.74023 36.1465 3.19092 36.0293 2.70264 35.7949C2.21436 35.5557 1.81396 35.2236 1.50146 34.7988C1.19385 34.374 0.996094 33.8809 0.908203 33.3193H2.21191C2.33398 33.8174 2.57812 34.2178 2.94434 34.5205C3.31055 34.8232 3.7793 34.9746 4.35059 34.9746C4.92676 34.9746 5.42236 34.8159 5.8374 34.4985C6.25732 34.1763 6.57959 33.71 6.8042 33.0996C7.02881 32.4893 7.14355 31.7568 7.14844 30.9023H7.00195C6.68945 31.3467 6.29883 31.6934 5.83008 31.9424C5.36133 32.1865 4.84863 32.3086 4.29199 32.3086C3.66211 32.3086 3.08105 32.1597 2.54883 31.8618C2.0166 31.5591 1.59424 31.1416 1.28174 30.6094C0.974121 30.0771 0.820312 29.4766 0.820312 28.8076C0.820312 28.1533 0.97168 27.5552 1.27441 27.0132C1.58203 26.4712 2.01416 26.0415 2.5708 25.7241C3.12744 25.4067 3.76953 25.248 4.49707 25.248ZM4.52637 26.4053C4.07715 26.4053 3.66699 26.5127 3.2959 26.7275C2.92969 26.9375 2.63916 27.2231 2.42432 27.5845C2.21436 27.9458 2.10938 28.3389 2.10938 28.7637C2.10938 29.208 2.20947 29.6133 2.40967 29.9795C2.60986 30.3408 2.89062 30.6265 3.25195 30.8364C3.61328 31.0464 4.02344 31.1514 4.48242 31.1514C4.93164 31.1514 5.34424 31.0415 5.72021 30.8218C6.09619 30.5972 6.39404 30.3018 6.61377 29.9355C6.8335 29.5645 6.94336 29.1738 6.94336 28.7637C6.94336 28.3584 6.83838 27.9751 6.62842 27.6138C6.41846 27.2476 6.12793 26.9546 5.75684 26.7349C5.39062 26.5151 4.98047 26.4053 4.52637 26.4053ZM14.0625 28.4121C14.0625 29.0957 14.2017 29.7769 14.48 30.4556C14.7583 31.1294 15.144 31.7373 15.6372 32.2793C16.1353 32.8213 16.6943 33.2412 17.3145 33.5391L16.6406 34.4326C15.9277 34.0859 15.2979 33.5781 14.751 32.9092C14.209 32.2354 13.8013 31.4761 13.5278 30.6313C13.2446 31.5347 12.8149 32.3452 12.2388 33.063C11.6675 33.7759 11.0107 34.3105 10.2686 34.667L9.60938 33.7734C10.2393 33.4805 10.8057 33.0532 11.3086 32.4917C11.8164 31.9302 12.2144 31.2954 12.5024 30.5874C12.7954 29.8745 12.9443 29.1494 12.9492 28.4121V27.3721H9.96094V26.4346H12.9346V24.4131H14.0918V26.4346H17.0215V27.3721H14.0625V28.4121ZM19.8047 29.5107H21.9873V30.4922H19.8047V37.1865H18.6621V24.1641H19.8047V29.5107ZM27.3193 27.665C27.3145 28.4365 27.4707 29.2031 27.7881 29.9648C28.1055 30.7217 28.5352 31.3955 29.0771 31.9863C29.6191 32.5771 30.21 33.0166 30.8496 33.3047L30.1465 34.2129C29.4043 33.8467 28.7305 33.3022 28.125 32.5796C27.5244 31.8521 27.0703 31.0269 26.7627 30.104C26.46 31.0854 26.0059 31.9644 25.4004 32.7407C24.7949 33.5122 24.1113 34.0908 23.3496 34.4766L22.6172 33.5098C23.2568 33.2119 23.8477 32.7603 24.3896 32.1548C24.9316 31.5444 25.3638 30.8462 25.686 30.0601C26.0083 29.269 26.1719 28.4707 26.1768 27.665V25.292H27.3193V27.665ZM33.4277 37.2158H32.2705V24.1641H33.4277V37.2158Z" fill="black"/>
<path d="M105.746 36H104.413V26.7715H104.354L101.776 28.4854V27.1523L104.413 25.3945H105.746V36ZM112.045 36.1465C111.264 36.1465 110.595 35.9341 110.038 35.5093C109.486 35.0845 109.064 34.4644 108.771 33.6489C108.483 32.8335 108.339 31.8496 108.339 30.6973C108.339 29.5596 108.485 28.583 108.778 27.7676C109.071 26.9473 109.496 26.3223 110.053 25.8926C110.609 25.4629 111.273 25.248 112.045 25.248C112.816 25.248 113.48 25.4629 114.037 25.8926C114.594 26.3223 115.019 26.9473 115.312 27.7676C115.604 28.583 115.751 29.5596 115.751 30.6973C115.751 31.8496 115.604 32.8335 115.312 33.6489C115.023 34.4644 114.601 35.0845 114.044 35.5093C113.488 35.9341 112.821 36.1465 112.045 36.1465ZM112.045 34.9746C112.553 34.9746 112.987 34.8086 113.349 34.4766C113.71 34.1445 113.986 33.6587 114.176 33.019C114.367 32.3794 114.462 31.6055 114.462 30.6973C114.462 29.7891 114.367 29.0127 114.176 28.3682C113.986 27.7236 113.71 27.2329 113.349 26.896C112.987 26.5591 112.553 26.3906 112.045 26.3906C111.537 26.3906 111.1 26.5591 110.734 26.896C110.373 27.2329 110.094 27.7236 109.899 28.3682C109.708 29.0127 109.613 29.7891 109.613 30.6973C109.613 31.6055 109.708 32.3794 109.899 33.019C110.089 33.6587 110.365 34.1445 110.727 34.4766C111.093 34.8086 111.532 34.9746 112.045 34.9746ZM121.376 28.4121C121.376 29.0957 121.515 29.7769 121.793 30.4556C122.072 31.1294 122.458 31.7373 122.951 32.2793C123.449 32.8213 124.008 33.2412 124.628 33.5391L123.954 34.4326C123.241 34.0859 122.611 33.5781 122.064 32.9092C121.522 32.2354 121.115 31.4761 120.841 30.6313C120.558 31.5347 120.128 32.3452 119.552 33.063C118.981 33.7759 118.324 34.3105 117.582 34.667L116.923 33.7734C117.553 33.4805 118.119 33.0532 118.622 32.4917C119.13 31.9302 119.528 31.2954 119.816 30.5874C120.109 29.8745 120.258 29.1494 120.263 28.4121V27.3721H117.274V26.4346H120.248V24.4131H121.405V26.4346H124.335V27.3721H121.376V28.4121ZM127.118 29.5107H129.301V30.4922H127.118V37.1865H125.976V24.1641H127.118V29.5107ZM134.633 27.665C134.628 28.4365 134.784 29.2031 135.102 29.9648C135.419 30.7217 135.849 31.3955 136.391 31.9863C136.933 32.5771 137.523 33.0166 138.163 33.3047L137.46 34.2129C136.718 33.8467 136.044 33.3022 135.438 32.5796C134.838 31.8521 134.384 31.0269 134.076 30.104C133.773 31.0854 133.319 31.9644 132.714 32.7407C132.108 33.5122 131.425 34.0908 130.663 34.4766L129.931 33.5098C130.57 33.2119 131.161 32.7603 131.703 32.1548C132.245 31.5444 132.677 30.8462 133 30.0601C133.322 29.269 133.485 28.4707 133.49 27.665V25.292H134.633V27.665ZM140.741 37.2158H139.584V24.1641H140.741V37.2158Z" fill="black"/>
<path d="M207.746 36H206.413V26.7715H206.354L203.776 28.4854V27.1523L206.413 25.3945H207.746V36ZM214.323 36H212.99V26.7715H212.932L210.354 28.4854V27.1523L212.99 25.3945H214.323V36ZM221.018 28.4121C221.018 29.0957 221.157 29.7769 221.435 30.4556C221.713 31.1294 222.099 31.7373 222.592 32.2793C223.09 32.8213 223.649 33.2412 224.27 33.5391L223.596 34.4326C222.883 34.0859 222.253 33.5781 221.706 32.9092C221.164 32.2354 220.756 31.4761 220.483 30.6313C220.2 31.5347 219.77 32.3452 219.194 33.063C218.623 33.7759 217.966 34.3105 217.224 34.667L216.564 33.7734C217.194 33.4805 217.761 33.0532 218.264 32.4917C218.771 31.9302 219.169 31.2954 219.458 30.5874C219.75 29.8745 219.899 29.1494 219.904 28.4121V27.3721H216.916V26.4346H219.89V24.4131H221.047V26.4346H223.977V27.3721H221.018V28.4121ZM226.76 29.5107H228.942V30.4922H226.76V37.1865H225.617V24.1641H226.76V29.5107ZM234.274 27.665C234.27 28.4365 234.426 29.2031 234.743 29.9648C235.061 30.7217 235.49 31.3955 236.032 31.9863C236.574 32.5771 237.165 33.0166 237.805 33.3047L237.102 34.2129C236.359 33.8467 235.686 33.3022 235.08 32.5796C234.479 31.8521 234.025 31.0269 233.718 30.104C233.415 31.0854 232.961 31.9644 232.355 32.7407C231.75 33.5122 231.066 34.0908 230.305 34.4766L229.572 33.5098C230.212 33.2119 230.803 32.7603 231.345 32.1548C231.887 31.5444 232.319 30.8462 232.641 30.0601C232.963 29.269 233.127 28.4707 233.132 27.665V25.292H234.274V27.665ZM240.383 37.2158H239.226V24.1641H240.383V37.2158Z" fill="black"/>
<path d="M309.746 36H308.413V26.7715H308.354L305.776 28.4854V27.1523L308.413 25.3945H309.746V36ZM312.559 35.0332L316.177 31.2246C316.655 30.7217 317.019 30.3164 317.268 30.0088C317.522 29.6963 317.712 29.396 317.839 29.1079C317.971 28.8149 318.037 28.5098 318.037 28.1924C318.037 27.8408 317.944 27.5283 317.759 27.2549C317.573 26.9814 317.319 26.769 316.997 26.6177C316.68 26.4663 316.323 26.3906 315.928 26.3906C315.513 26.3906 315.149 26.4736 314.836 26.6396C314.524 26.8057 314.282 27.04 314.111 27.3428C313.945 27.6455 313.862 27.9922 313.862 28.3828H312.617C312.612 27.7676 312.754 27.2231 313.042 26.7495C313.335 26.2759 313.738 25.9072 314.25 25.6436C314.763 25.3799 315.337 25.248 315.972 25.248C316.602 25.248 317.166 25.3774 317.664 25.6362C318.167 25.895 318.56 26.249 318.843 26.6982C319.126 27.1475 319.268 27.6455 319.268 28.1924C319.268 28.5977 319.194 28.9858 319.048 29.3569C318.901 29.7231 318.655 30.1309 318.308 30.5801C317.966 31.0244 317.476 31.5762 316.836 32.2354L314.404 34.7402V34.8281H319.458V36H312.573L312.559 35.0332ZM325.244 28.4121C325.244 29.0957 325.383 29.7769 325.662 30.4556C325.94 31.1294 326.326 31.7373 326.819 32.2793C327.317 32.8213 327.876 33.2412 328.496 33.5391L327.822 34.4326C327.109 34.0859 326.479 33.5781 325.933 32.9092C325.391 32.2354 324.983 31.4761 324.709 30.6313C324.426 31.5347 323.997 32.3452 323.42 33.063C322.849 33.7759 322.192 34.3105 321.45 34.667L320.791 33.7734C321.421 33.4805 321.987 33.0532 322.49 32.4917C322.998 31.9302 323.396 31.2954 323.684 30.5874C323.977 29.8745 324.126 29.1494 324.131 28.4121V27.3721H321.143V26.4346H324.116V24.4131H325.273V26.4346H328.203V27.3721H325.244V28.4121ZM330.986 29.5107H333.169V30.4922H330.986V37.1865H329.844V24.1641H330.986V29.5107ZM338.501 27.665C338.496 28.4365 338.652 29.2031 338.97 29.9648C339.287 30.7217 339.717 31.3955 340.259 31.9863C340.801 32.5771 341.392 33.0166 342.031 33.3047L341.328 34.2129C340.586 33.8467 339.912 33.3022 339.307 32.5796C338.706 31.8521 338.252 31.0269 337.944 30.104C337.642 31.0854 337.188 31.9644 336.582 32.7407C335.977 33.5122 335.293 34.0908 334.531 34.4766L333.799 33.5098C334.438 33.2119 335.029 32.7603 335.571 32.1548C336.113 31.5444 336.545 30.8462 336.868 30.0601C337.19 29.269 337.354 28.4707 337.358 27.665V25.292H338.501V27.665ZM344.609 37.2158H343.452V24.1641H344.609V37.2158Z" fill="black"/>
<path d="M411.746 36H410.413V26.7715H410.354L407.776 28.4854V27.1523L410.413 25.3945H411.746V36ZM418.235 36.1465C417.537 36.1465 416.912 36.0293 416.36 35.7949C415.813 35.5605 415.379 35.231 415.057 34.8062C414.739 34.3813 414.568 33.8906 414.544 33.334H415.877C415.901 33.6611 416.019 33.9492 416.229 34.1982C416.443 34.4473 416.724 34.6401 417.071 34.7769C417.417 34.9087 417.801 34.9746 418.221 34.9746C418.68 34.9746 419.092 34.8965 419.458 34.7402C419.83 34.5791 420.118 34.3594 420.323 34.0811C420.533 33.7979 420.638 33.4756 420.638 33.1143C420.638 32.7236 420.535 32.3794 420.33 32.0815C420.13 31.7837 419.837 31.5518 419.451 31.3857C419.065 31.2197 418.602 31.1367 418.06 31.1367H417.195V29.9795H418.06C418.484 29.9795 418.863 29.9038 419.195 29.7524C419.527 29.6011 419.783 29.3887 419.964 29.1152C420.149 28.8418 420.242 28.5244 420.242 28.1631C420.242 27.8164 420.159 27.5088 419.993 27.2402C419.832 26.9717 419.603 26.7642 419.305 26.6177C419.007 26.4663 418.66 26.3906 418.265 26.3906C417.884 26.3906 417.527 26.459 417.195 26.5957C416.863 26.7324 416.592 26.9277 416.382 27.1816C416.172 27.4307 416.058 27.7236 416.038 28.0605H414.764C414.788 27.5137 414.959 27.0278 415.276 26.603C415.594 26.1733 416.016 25.8413 416.543 25.6069C417.071 25.3677 417.649 25.248 418.279 25.248C418.934 25.248 419.505 25.3774 419.993 25.6362C420.486 25.8901 420.865 26.2344 421.128 26.6689C421.392 27.1035 421.521 27.5771 421.517 28.0898C421.521 28.6855 421.363 29.1958 421.041 29.6206C420.718 30.0454 420.276 30.3359 419.715 30.4922V30.5654C420.169 30.6387 420.562 30.7925 420.894 31.0269C421.231 31.2563 421.487 31.5518 421.663 31.9131C421.844 32.2695 421.932 32.6699 421.927 33.1143C421.932 33.6855 421.773 34.2031 421.451 34.667C421.128 35.126 420.684 35.4873 420.118 35.751C419.556 36.0146 418.929 36.1465 418.235 36.1465ZM427.698 28.4121C427.698 29.0957 427.837 29.7769 428.116 30.4556C428.394 31.1294 428.78 31.7373 429.273 32.2793C429.771 32.8213 430.33 33.2412 430.95 33.5391L430.276 34.4326C429.563 34.0859 428.934 33.5781 428.387 32.9092C427.845 32.2354 427.437 31.4761 427.164 30.6313C426.88 31.5347 426.451 32.3452 425.875 33.063C425.303 33.7759 424.646 34.3105 423.904 34.667L423.245 33.7734C423.875 33.4805 424.441 33.0532 424.944 32.4917C425.452 31.9302 425.85 31.2954 426.138 30.5874C426.431 29.8745 426.58 29.1494 426.585 28.4121V27.3721H423.597V26.4346H426.57V24.4131H427.728V26.4346H430.657V27.3721H427.698V28.4121ZM433.44 29.5107H435.623V30.4922H433.44V37.1865H432.298V24.1641H433.44V29.5107ZM440.955 27.665C440.95 28.4365 441.106 29.2031 441.424 29.9648C441.741 30.7217 442.171 31.3955 442.713 31.9863C443.255 32.5771 443.846 33.0166 444.485 33.3047L443.782 34.2129C443.04 33.8467 442.366 33.3022 441.761 32.5796C441.16 31.8521 440.706 31.0269 440.398 30.104C440.096 31.0854 439.642 31.9644 439.036 32.7407C438.431 33.5122 437.747 34.0908 436.985 34.4766L436.253 33.5098C436.893 33.2119 437.483 32.7603 438.025 32.1548C438.567 31.5444 439 30.8462 439.322 30.0601C439.644 29.269 439.808 28.4707 439.812 27.665V25.292H440.955V27.665ZM447.063 37.2158H445.906V24.1641H447.063V37.2158Z" fill="black"/>
<path d="M513.746 36H512.413V26.7715H512.354L509.776 28.4854V27.1523L512.413 25.3945H513.746V36ZM516.31 32.748L521.085 25.3945H522.711V32.6748H524.19V33.832H522.711V36H521.451V33.832H516.31V32.748ZM521.451 32.6748V27.0645H521.319L517.73 32.5869V32.6748H521.451ZM529.801 28.4121C529.801 29.0957 529.94 29.7769 530.218 30.4556C530.497 31.1294 530.882 31.7373 531.375 32.2793C531.874 32.8213 532.433 33.2412 533.053 33.5391L532.379 34.4326C531.666 34.0859 531.036 33.5781 530.489 32.9092C529.947 32.2354 529.54 31.4761 529.266 30.6313C528.983 31.5347 528.553 32.3452 527.977 33.063C527.406 33.7759 526.749 34.3105 526.007 34.667L525.348 33.7734C525.978 33.4805 526.544 33.0532 527.047 32.4917C527.555 31.9302 527.953 31.2954 528.241 30.5874C528.534 29.8745 528.683 29.1494 528.688 28.4121V27.3721H525.699V26.4346H528.673V24.4131H529.83V26.4346H532.76V27.3721H529.801V28.4121ZM535.543 29.5107H537.726V30.4922H535.543V37.1865H534.4V24.1641H535.543V29.5107ZM543.058 27.665C543.053 28.4365 543.209 29.2031 543.526 29.9648C543.844 30.7217 544.273 31.3955 544.815 31.9863C545.357 32.5771 545.948 33.0166 546.588 33.3047L545.885 34.2129C545.143 33.8467 544.469 33.3022 543.863 32.5796C543.263 31.8521 542.809 31.0269 542.501 30.104C542.198 31.0854 541.744 31.9644 541.139 32.7407C540.533 33.5122 539.85 34.0908 539.088 34.4766L538.355 33.5098C538.995 33.2119 539.586 32.7603 540.128 32.1548C540.67 31.5444 541.102 30.8462 541.424 30.0601C541.747 29.269 541.91 28.4707 541.915 27.665V25.292H543.058V27.665ZM549.166 37.2158H548.009V24.1641H549.166V37.2158Z" fill="black"/>
<path d="M615.746 36H614.413V26.7715H614.354L611.776 28.4854V27.1523L614.413 25.3945H615.746V36ZM622.03 36.1465C621.4 36.1465 620.827 36.0269 620.309 35.7876C619.796 35.5435 619.386 35.209 619.079 34.7842C618.776 34.3545 618.612 33.8711 618.588 33.334H619.862C619.896 33.6465 620.014 33.9297 620.214 34.1836C620.414 34.4326 620.673 34.6304 620.99 34.7769C621.308 34.9185 621.654 34.9893 622.03 34.9893C622.479 34.9893 622.885 34.8867 623.246 34.6816C623.607 34.4766 623.891 34.1958 624.096 33.8394C624.301 33.4829 624.403 33.085 624.403 32.6455C624.403 32.1914 624.296 31.7837 624.081 31.4224C623.871 31.0562 623.578 30.7705 623.202 30.5654C622.831 30.3555 622.411 30.248 621.942 30.2432C621 30.2285 620.341 30.5459 619.965 31.1953H618.69L619.438 25.3945H625.18V26.5664H620.536L620.141 29.6719H620.243C620.482 29.4863 620.773 29.3374 621.115 29.2251C621.457 29.1128 621.811 29.0566 622.177 29.0566C622.841 29.0566 623.439 29.2104 623.971 29.5181C624.508 29.8208 624.928 30.2432 625.231 30.7852C625.539 31.3271 625.692 31.9375 625.692 32.6162C625.692 33.29 625.534 33.8955 625.216 34.4326C624.899 34.9697 624.462 35.3896 623.905 35.6924C623.349 35.9951 622.724 36.1465 622.03 36.1465ZM631.391 28.4121C631.391 29.0957 631.53 29.7769 631.808 30.4556C632.086 31.1294 632.472 31.7373 632.965 32.2793C633.463 32.8213 634.022 33.2412 634.643 33.5391L633.969 34.4326C633.256 34.0859 632.626 33.5781 632.079 32.9092C631.537 32.2354 631.129 31.4761 630.856 30.6313C630.573 31.5347 630.143 32.3452 629.567 33.063C628.996 33.7759 628.339 34.3105 627.597 34.667L626.938 33.7734C627.567 33.4805 628.134 33.0532 628.637 32.4917C629.145 31.9302 629.542 31.2954 629.831 30.5874C630.124 29.8745 630.272 29.1494 630.277 28.4121V27.3721H627.289V26.4346H630.263V24.4131H631.42V26.4346H634.35V27.3721H631.391V28.4121ZM637.133 29.5107H639.315V30.4922H637.133V37.1865H635.99V24.1641H637.133V29.5107ZM644.647 27.665C644.643 28.4365 644.799 29.2031 645.116 29.9648C645.434 30.7217 645.863 31.3955 646.405 31.9863C646.947 32.5771 647.538 33.0166 648.178 33.3047L647.475 34.2129C646.732 33.8467 646.059 33.3022 645.453 32.5796C644.853 31.8521 644.398 31.0269 644.091 30.104C643.788 31.0854 643.334 31.9644 642.729 32.7407C642.123 33.5122 641.439 34.0908 640.678 34.4766L639.945 33.5098C640.585 33.2119 641.176 32.7603 641.718 32.1548C642.26 31.5444 642.692 30.8462 643.014 30.0601C643.336 29.269 643.5 28.4707 643.505 27.665V25.292H644.647V27.665ZM650.756 37.2158H649.599V24.1641H650.756V37.2158Z" fill="black"/>
<path d="M717.746 36H716.413V26.7715H716.354L713.776 28.4854V27.1523L716.413 25.3945H717.746V36ZM724.294 36.1465C723.61 36.1465 722.976 35.9927 722.39 35.6851C721.809 35.3726 721.33 34.8428 720.954 34.0957C720.583 33.3438 720.397 32.3477 720.397 31.1074C720.397 29.8721 720.559 28.8149 720.881 27.936C721.208 27.0571 721.672 26.3906 722.272 25.9365C722.878 25.4775 723.596 25.248 724.426 25.248C725.036 25.248 725.583 25.3652 726.066 25.5996C726.555 25.834 726.953 26.1636 727.26 26.5884C727.573 27.0132 727.775 27.5039 727.868 28.0605H726.564C726.433 27.5674 726.184 27.1719 725.817 26.874C725.456 26.5713 724.992 26.4199 724.426 26.4199C723.85 26.4199 723.352 26.5811 722.932 26.9033C722.517 27.2207 722.197 27.6821 721.972 28.2876C721.752 28.8931 721.643 29.6182 721.643 30.4629H721.774C722.087 30.0186 722.478 29.6743 722.946 29.4302C723.415 29.1812 723.933 29.0566 724.499 29.0566C725.124 29.0566 725.7 29.208 726.228 29.5107C726.76 29.8135 727.18 30.2334 727.487 30.7705C727.8 31.3027 727.956 31.9033 727.956 32.5723C727.956 33.2314 727.802 33.8345 727.495 34.3813C727.192 34.9233 726.762 35.353 726.206 35.6704C725.649 35.9878 725.012 36.1465 724.294 36.1465ZM724.265 34.9893C724.714 34.9893 725.122 34.8818 725.488 34.667C725.854 34.4521 726.142 34.1616 726.352 33.7954C726.567 33.4243 726.677 33.0215 726.682 32.5869C726.677 32.1523 726.572 31.7544 726.367 31.3931C726.162 31.0317 725.878 30.7461 725.517 30.5361C725.156 30.3213 724.748 30.2139 724.294 30.2139C723.84 30.2139 723.425 30.3237 723.049 30.5435C722.673 30.7632 722.375 31.0586 722.155 31.4297C721.936 31.7959 721.823 32.1865 721.818 32.6016C721.818 33.0166 721.923 33.4072 722.133 33.7734C722.348 34.1396 722.641 34.4351 723.012 34.6597C723.388 34.8794 723.806 34.9893 724.265 34.9893ZM733.64 28.4121C733.64 29.0957 733.779 29.7769 734.057 30.4556C734.335 31.1294 734.721 31.7373 735.214 32.2793C735.712 32.8213 736.271 33.2412 736.892 33.5391L736.218 34.4326C735.505 34.0859 734.875 33.5781 734.328 32.9092C733.786 32.2354 733.378 31.4761 733.105 30.6313C732.822 31.5347 732.392 32.3452 731.816 33.063C731.245 33.7759 730.588 34.3105 729.846 34.667L729.187 33.7734C729.816 33.4805 730.383 33.0532 730.886 32.4917C731.394 31.9302 731.792 31.2954 732.08 30.5874C732.373 29.8745 732.521 29.1494 732.526 28.4121V27.3721H729.538V26.4346H732.512V24.4131H733.669V26.4346H736.599V27.3721H733.64V28.4121ZM739.382 29.5107H741.564V30.4922H739.382V37.1865H738.239V24.1641H739.382V29.5107ZM746.896 27.665C746.892 28.4365 747.048 29.2031 747.365 29.9648C747.683 30.7217 748.112 31.3955 748.654 31.9863C749.196 32.5771 749.787 33.0166 750.427 33.3047L749.724 34.2129C748.981 33.8467 748.308 33.3022 747.702 32.5796C747.102 31.8521 746.647 31.0269 746.34 30.104C746.037 31.0854 745.583 31.9644 744.978 32.7407C744.372 33.5122 743.688 34.0908 742.927 34.4766L742.194 33.5098C742.834 33.2119 743.425 32.7603 743.967 32.1548C744.509 31.5444 744.941 30.8462 745.263 30.0601C745.585 29.269 745.749 28.4707 745.754 27.665V25.292H746.896V27.665ZM753.005 37.2158H751.848V24.1641H753.005V37.2158Z" fill="black"/>
</svg>
