<svg width="750" height="46" viewBox="0 0 750 46" fill="none" xmlns="http://www.w3.org/2000/svg">
<line x1="9" y1="9" x2="736" y2="9" stroke="#64C6F0" stroke-width="2"/>
<circle cx="17" cy="8" r="8" fill="#64C6F0"/>
<circle cx="119" cy="8" r="8" fill="#64C6F0"/>
<circle cx="221" cy="8" r="8" fill="#64C6F0"/>
<circle cx="323" cy="8" r="8" fill="#64C6F0"/>
<circle cx="425" cy="8" r="8" fill="#64C6F0"/>
<circle cx="527" cy="8" r="8" fill="#64C6F0"/>
<circle cx="629" cy="8" r="8" fill="#64C6F0"/>
<circle cx="731" cy="8" r="8" fill="#64C6F0"/>
<path d="M4.74609 40H3.41309V30.7715H3.35449L0.776367 32.4854V31.1523L3.41309 29.3945H4.74609V40ZM11.4404 32.4121C11.4404 33.0957 11.5796 33.7769 11.8579 34.4556C12.1362 35.1294 12.522 35.7373 13.0151 36.2793C13.5132 36.8213 14.0723 37.2412 14.6924 37.5391L14.0186 38.4326C13.3057 38.0859 12.6758 37.5781 12.1289 36.9092C11.5869 36.2354 11.1792 35.4761 10.9058 34.6313C10.6226 35.5347 10.1929 36.3452 9.6167 37.063C9.04541 37.7759 8.38867 38.3105 7.64648 38.667L6.9873 37.7734C7.61719 37.4805 8.18359 37.0532 8.68652 36.4917C9.19434 35.9302 9.59229 35.2954 9.88037 34.5874C10.1733 33.8745 10.3223 33.1494 10.3271 32.4121V31.3721H7.33887V30.4346H10.3125V28.4131H11.4697V30.4346H14.3994V31.3721H11.4404V32.4121ZM17.1826 33.5107H19.3652V34.4922H17.1826V41.1865H16.04V28.1641H17.1826V33.5107ZM24.6973 31.665C24.6924 32.4365 24.8486 33.2031 25.166 33.9648C25.4834 34.7217 25.9131 35.3955 26.4551 35.9863C26.9971 36.5771 27.5879 37.0166 28.2275 37.3047L27.5244 38.2129C26.7822 37.8467 26.1084 37.3022 25.5029 36.5796C24.9023 35.8521 24.4482 35.0269 24.1406 34.104C23.8379 35.0854 23.3838 35.9644 22.7783 36.7407C22.1729 37.5122 21.4893 38.0908 20.7275 38.4766L19.9951 37.5098C20.6348 37.2119 21.2256 36.7603 21.7676 36.1548C22.3096 35.5444 22.7417 34.8462 23.064 34.0601C23.3862 33.269 23.5498 32.4707 23.5547 31.665V29.292H24.6973V31.665ZM30.8057 41.2158H29.6484V28.1641H30.8057V41.2158Z" fill="black"/>
<path d="M102.981 39.0332L106.6 35.2246C107.078 34.7217 107.442 34.3164 107.691 34.0088C107.945 33.6963 108.135 33.396 108.262 33.1079C108.394 32.8149 108.46 32.5098 108.46 32.1924C108.46 31.8408 108.367 31.5283 108.182 31.2549C107.996 30.9814 107.742 30.769 107.42 30.6177C107.103 30.4663 106.746 30.3906 106.351 30.3906C105.936 30.3906 105.572 30.4736 105.259 30.6396C104.947 30.8057 104.705 31.04 104.534 31.3428C104.368 31.6455 104.285 31.9922 104.285 32.3828H103.04C103.035 31.7676 103.177 31.2231 103.465 30.7495C103.758 30.2759 104.161 29.9072 104.673 29.6436C105.186 29.3799 105.76 29.248 106.395 29.248C107.024 29.248 107.588 29.3774 108.086 29.6362C108.589 29.895 108.982 30.249 109.266 30.6982C109.549 31.1475 109.69 31.6455 109.69 32.1924C109.69 32.5977 109.617 32.9858 109.471 33.3569C109.324 33.7231 109.078 34.1309 108.731 34.5801C108.389 35.0244 107.898 35.5762 107.259 36.2354L104.827 38.7402V38.8281H109.881V40H102.996L102.981 39.0332ZM115.667 32.4121C115.667 33.0957 115.806 33.7769 116.084 34.4556C116.363 35.1294 116.749 35.7373 117.242 36.2793C117.74 36.8213 118.299 37.2412 118.919 37.5391L118.245 38.4326C117.532 38.0859 116.902 37.5781 116.355 36.9092C115.813 36.2354 115.406 35.4761 115.132 34.6313C114.849 35.5347 114.419 36.3452 113.843 37.063C113.272 37.7759 112.615 38.3105 111.873 38.667L111.214 37.7734C111.844 37.4805 112.41 37.0532 112.913 36.4917C113.421 35.9302 113.819 35.2954 114.107 34.5874C114.4 33.8745 114.549 33.1494 114.554 32.4121V31.3721H111.565V30.4346H114.539V28.4131H115.696V30.4346H118.626V31.3721H115.667V32.4121ZM121.409 33.5107H123.592V34.4922H121.409V41.1865H120.267V28.1641H121.409V33.5107ZM128.924 31.665C128.919 32.4365 129.075 33.2031 129.393 33.9648C129.71 34.7217 130.14 35.3955 130.682 35.9863C131.224 36.5771 131.814 37.0166 132.454 37.3047L131.751 38.2129C131.009 37.8467 130.335 37.3022 129.729 36.5796C129.129 35.8521 128.675 35.0269 128.367 34.104C128.064 35.0854 127.61 35.9644 127.005 36.7407C126.399 37.5122 125.716 38.0908 124.954 38.4766L124.222 37.5098C124.861 37.2119 125.452 36.7603 125.994 36.1548C126.536 35.5444 126.968 34.8462 127.291 34.0601C127.613 33.269 127.776 32.4707 127.781 31.665V29.292H128.924V31.665ZM135.032 41.2158H133.875V28.1641H135.032V41.2158Z" fill="black"/>
<path d="M208.658 40.1465C207.96 40.1465 207.335 40.0293 206.783 39.7949C206.236 39.5605 205.802 39.231 205.479 38.8062C205.162 38.3813 204.991 37.8906 204.967 37.334H206.3C206.324 37.6611 206.441 37.9492 206.651 38.1982C206.866 38.4473 207.147 38.6401 207.494 38.7769C207.84 38.9087 208.224 38.9746 208.644 38.9746C209.103 38.9746 209.515 38.8965 209.881 38.7402C210.252 38.5791 210.541 38.3594 210.746 38.0811C210.956 37.7979 211.061 37.4756 211.061 37.1143C211.061 36.7236 210.958 36.3794 210.753 36.0815C210.553 35.7837 210.26 35.5518 209.874 35.3857C209.488 35.2197 209.024 35.1367 208.482 35.1367H207.618V33.9795H208.482C208.907 33.9795 209.286 33.9038 209.618 33.7524C209.95 33.6011 210.206 33.3887 210.387 33.1152C210.572 32.8418 210.665 32.5244 210.665 32.1631C210.665 31.8164 210.582 31.5088 210.416 31.2402C210.255 30.9717 210.025 30.7642 209.728 30.6177C209.43 30.4663 209.083 30.3906 208.688 30.3906C208.307 30.3906 207.95 30.459 207.618 30.5957C207.286 30.7324 207.015 30.9277 206.805 31.1816C206.595 31.4307 206.48 31.7236 206.461 32.0605H205.187C205.211 31.5137 205.382 31.0278 205.699 30.603C206.017 30.1733 206.439 29.8413 206.966 29.6069C207.494 29.3677 208.072 29.248 208.702 29.248C209.356 29.248 209.928 29.3774 210.416 29.6362C210.909 29.8901 211.288 30.2344 211.551 30.6689C211.815 31.1035 211.944 31.5771 211.939 32.0898C211.944 32.6855 211.786 33.1958 211.463 33.6206C211.141 34.0454 210.699 34.3359 210.138 34.4922V34.5654C210.592 34.6387 210.985 34.7925 211.317 35.0269C211.654 35.2563 211.91 35.5518 212.086 35.9131C212.267 36.2695 212.354 36.6699 212.35 37.1143C212.354 37.6855 212.196 38.2031 211.874 38.667C211.551 39.126 211.107 39.4873 210.541 39.751C209.979 40.0146 209.352 40.1465 208.658 40.1465ZM218.121 32.4121C218.121 33.0957 218.26 33.7769 218.539 34.4556C218.817 35.1294 219.203 35.7373 219.696 36.2793C220.194 36.8213 220.753 37.2412 221.373 37.5391L220.699 38.4326C219.986 38.0859 219.356 37.5781 218.81 36.9092C218.268 36.2354 217.86 35.4761 217.586 34.6313C217.303 35.5347 216.874 36.3452 216.297 37.063C215.726 37.7759 215.069 38.3105 214.327 38.667L213.668 37.7734C214.298 37.4805 214.864 37.0532 215.367 36.4917C215.875 35.9302 216.273 35.2954 216.561 34.5874C216.854 33.8745 217.003 33.1494 217.008 32.4121V31.3721H214.02V30.4346H216.993V28.4131H218.15V30.4346H221.08V31.3721H218.121V32.4121ZM223.863 33.5107H226.046V34.4922H223.863V41.1865H222.721V28.1641H223.863V33.5107ZM231.378 31.665C231.373 32.4365 231.529 33.2031 231.847 33.9648C232.164 34.7217 232.594 35.3955 233.136 35.9863C233.678 36.5771 234.269 37.0166 234.908 37.3047L234.205 38.2129C233.463 37.8467 232.789 37.3022 232.184 36.5796C231.583 35.8521 231.129 35.0269 230.821 34.104C230.519 35.0854 230.064 35.9644 229.459 36.7407C228.854 37.5122 228.17 38.0908 227.408 38.4766L226.676 37.5098C227.315 37.2119 227.906 36.7603 228.448 36.1548C228.99 35.5444 229.422 34.8462 229.745 34.0601C230.067 33.269 230.23 32.4707 230.235 31.665V29.292H231.378V31.665ZM237.486 41.2158H236.329V28.1641H237.486V41.2158Z" fill="black"/>
<path d="M306.732 36.748L311.508 29.3945H313.134V36.6748H314.613V37.832H313.134V40H311.874V37.832H306.732V36.748ZM311.874 36.6748V31.0645H311.742L308.153 36.5869V36.6748H311.874ZM320.224 32.4121C320.224 33.0957 320.363 33.7769 320.641 34.4556C320.919 35.1294 321.305 35.7373 321.798 36.2793C322.296 36.8213 322.855 37.2412 323.476 37.5391L322.802 38.4326C322.089 38.0859 321.459 37.5781 320.912 36.9092C320.37 36.2354 319.962 35.4761 319.689 34.6313C319.406 35.5347 318.976 36.3452 318.4 37.063C317.829 37.7759 317.172 38.3105 316.43 38.667L315.771 37.7734C316.4 37.4805 316.967 37.0532 317.47 36.4917C317.978 35.9302 318.375 35.2954 318.664 34.5874C318.957 33.8745 319.105 33.1494 319.11 32.4121V31.3721H316.122V30.4346H319.096V28.4131H320.253V30.4346H323.183V31.3721H320.224V32.4121ZM325.966 33.5107H328.148V34.4922H325.966V41.1865H324.823V28.1641H325.966V33.5107ZM333.48 31.665C333.476 32.4365 333.632 33.2031 333.949 33.9648C334.267 34.7217 334.696 35.3955 335.238 35.9863C335.78 36.5771 336.371 37.0166 337.011 37.3047L336.308 38.2129C335.565 37.8467 334.892 37.3022 334.286 36.5796C333.686 35.8521 333.231 35.0269 332.924 34.104C332.621 35.0854 332.167 35.9644 331.562 36.7407C330.956 37.5122 330.272 38.0908 329.511 38.4766L328.778 37.5098C329.418 37.2119 330.009 36.7603 330.551 36.1548C331.093 35.5444 331.525 34.8462 331.847 34.0601C332.169 33.269 332.333 32.4707 332.338 31.665V29.292H333.48V31.665ZM339.589 41.2158H338.432V28.1641H339.589V41.2158Z" fill="black"/>
<path d="M412.453 40.1465C411.823 40.1465 411.25 40.0269 410.732 39.7876C410.219 39.5435 409.809 39.209 409.501 38.7842C409.199 38.3545 409.035 37.8711 409.011 37.334H410.285C410.319 37.6465 410.437 37.9297 410.637 38.1836C410.837 38.4326 411.096 38.6304 411.413 38.7769C411.73 38.9185 412.077 38.9893 412.453 38.9893C412.902 38.9893 413.308 38.8867 413.669 38.6816C414.03 38.4766 414.313 38.1958 414.519 37.8394C414.724 37.4829 414.826 37.085 414.826 36.6455C414.826 36.1914 414.719 35.7837 414.504 35.4224C414.294 35.0562 414.001 34.7705 413.625 34.5654C413.254 34.3555 412.834 34.248 412.365 34.2432C411.423 34.2285 410.764 34.5459 410.388 35.1953H409.113L409.86 29.3945H415.603V30.5664H410.959L410.563 33.6719H410.666C410.905 33.4863 411.196 33.3374 411.538 33.2251C411.879 33.1128 412.233 33.0566 412.6 33.0566C413.264 33.0566 413.862 33.2104 414.394 33.5181C414.931 33.8208 415.351 34.2432 415.654 34.7852C415.961 35.3271 416.115 35.9375 416.115 36.6162C416.115 37.29 415.957 37.8955 415.639 38.4326C415.322 38.9697 414.885 39.3896 414.328 39.6924C413.771 39.9951 413.146 40.1465 412.453 40.1465ZM421.813 32.4121C421.813 33.0957 421.953 33.7769 422.231 34.4556C422.509 35.1294 422.895 35.7373 423.388 36.2793C423.886 36.8213 424.445 37.2412 425.065 37.5391L424.392 38.4326C423.679 38.0859 423.049 37.5781 422.502 36.9092C421.96 36.2354 421.552 35.4761 421.279 34.6313C420.996 35.5347 420.566 36.3452 419.99 37.063C419.418 37.7759 418.762 38.3105 418.02 38.667L417.36 37.7734C417.99 37.4805 418.557 37.0532 419.06 36.4917C419.567 35.9302 419.965 35.2954 420.253 34.5874C420.546 33.8745 420.695 33.1494 420.7 32.4121V31.3721H417.712V30.4346H420.686V28.4131H421.843V30.4346H424.772V31.3721H421.813V32.4121ZM427.556 33.5107H429.738V34.4922H427.556V41.1865H426.413V28.1641H427.556V33.5107ZM435.07 31.665C435.065 32.4365 435.222 33.2031 435.539 33.9648C435.856 34.7217 436.286 35.3955 436.828 35.9863C437.37 36.5771 437.961 37.0166 438.601 37.3047L437.897 38.2129C437.155 37.8467 436.481 37.3022 435.876 36.5796C435.275 35.8521 434.821 35.0269 434.514 34.104C434.211 35.0854 433.757 35.9644 433.151 36.7407C432.546 37.5122 431.862 38.0908 431.101 38.4766L430.368 37.5098C431.008 37.2119 431.599 36.7603 432.141 36.1548C432.683 35.5444 433.115 34.8462 433.437 34.0601C433.759 33.269 433.923 32.4707 433.928 31.665V29.292H435.07V31.665ZM441.179 41.2158H440.021V28.1641H441.179V41.2158Z" fill="black"/>
<path d="M514.717 40.1465C514.033 40.1465 513.398 39.9927 512.812 39.6851C512.231 39.3726 511.753 38.8428 511.377 38.0957C511.006 37.3438 510.82 36.3477 510.82 35.1074C510.82 33.8721 510.981 32.8149 511.304 31.936C511.631 31.0571 512.095 30.3906 512.695 29.9365C513.301 29.4775 514.019 29.248 514.849 29.248C515.459 29.248 516.006 29.3652 516.489 29.5996C516.978 29.834 517.375 30.1636 517.683 30.5884C517.996 31.0132 518.198 31.5039 518.291 32.0605H516.987C516.855 31.5674 516.606 31.1719 516.24 30.874C515.879 30.5713 515.415 30.4199 514.849 30.4199C514.272 30.4199 513.774 30.5811 513.354 30.9033C512.939 31.2207 512.62 31.6821 512.395 32.2876C512.175 32.8931 512.065 33.6182 512.065 34.4629H512.197C512.51 34.0186 512.9 33.6743 513.369 33.4302C513.838 33.1812 514.355 33.0566 514.922 33.0566C515.547 33.0566 516.123 33.208 516.65 33.5107C517.183 33.8135 517.603 34.2334 517.91 34.7705C518.223 35.3027 518.379 35.9033 518.379 36.5723C518.379 37.2314 518.225 37.8345 517.917 38.3813C517.615 38.9233 517.185 39.353 516.628 39.6704C516.072 39.9878 515.435 40.1465 514.717 40.1465ZM514.688 38.9893C515.137 38.9893 515.544 38.8818 515.911 38.667C516.277 38.4521 516.565 38.1616 516.775 37.7954C516.99 37.4243 517.1 37.0215 517.104 36.5869C517.1 36.1523 516.995 35.7544 516.79 35.3931C516.584 35.0317 516.301 34.7461 515.94 34.5361C515.579 34.3213 515.171 34.2139 514.717 34.2139C514.263 34.2139 513.848 34.3237 513.472 34.5435C513.096 34.7632 512.798 35.0586 512.578 35.4297C512.358 35.7959 512.246 36.1865 512.241 36.6016C512.241 37.0166 512.346 37.4072 512.556 37.7734C512.771 38.1396 513.064 38.4351 513.435 38.6597C513.811 38.8794 514.229 38.9893 514.688 38.9893ZM524.062 32.4121C524.062 33.0957 524.202 33.7769 524.48 34.4556C524.758 35.1294 525.144 35.7373 525.637 36.2793C526.135 36.8213 526.694 37.2412 527.314 37.5391L526.641 38.4326C525.928 38.0859 525.298 37.5781 524.751 36.9092C524.209 36.2354 523.801 35.4761 523.528 34.6313C523.245 35.5347 522.815 36.3452 522.239 37.063C521.667 37.7759 521.011 38.3105 520.269 38.667L519.609 37.7734C520.239 37.4805 520.806 37.0532 521.309 36.4917C521.816 35.9302 522.214 35.2954 522.502 34.5874C522.795 33.8745 522.944 33.1494 522.949 32.4121V31.3721H519.961V30.4346H522.935V28.4131H524.092V30.4346H527.021V31.3721H524.062V32.4121ZM529.805 33.5107H531.987V34.4922H529.805V41.1865H528.662V28.1641H529.805V33.5107ZM537.319 31.665C537.314 32.4365 537.471 33.2031 537.788 33.9648C538.105 34.7217 538.535 35.3955 539.077 35.9863C539.619 36.5771 540.21 37.0166 540.85 37.3047L540.146 38.2129C539.404 37.8467 538.73 37.3022 538.125 36.5796C537.524 35.8521 537.07 35.0269 536.763 34.104C536.46 35.0854 536.006 35.9644 535.4 36.7407C534.795 37.5122 534.111 38.0908 533.35 38.4766L532.617 37.5098C533.257 37.2119 533.848 36.7603 534.39 36.1548C534.932 35.5444 535.364 34.8462 535.686 34.0601C536.008 33.269 536.172 32.4707 536.177 31.665V29.292H537.319V31.665ZM543.428 41.2158H542.271V28.1641H543.428V41.2158Z" fill="black"/>
<path d="M618.196 30.6396V30.5664H612.586V29.3945H619.559V30.625L614.71 40H613.333L618.196 30.6396ZM625.14 32.4121C625.14 33.0957 625.279 33.7769 625.557 34.4556C625.835 35.1294 626.221 35.7373 626.714 36.2793C627.212 36.8213 627.771 37.2412 628.392 37.5391L627.718 38.4326C627.005 38.0859 626.375 37.5781 625.828 36.9092C625.286 36.2354 624.878 35.4761 624.605 34.6313C624.322 35.5347 623.892 36.3452 623.316 37.063C622.745 37.7759 622.088 38.3105 621.346 38.667L620.687 37.7734C621.316 37.4805 621.883 37.0532 622.386 36.4917C622.894 35.9302 623.292 35.2954 623.58 34.5874C623.873 33.8745 624.021 33.1494 624.026 32.4121V31.3721H621.038V30.4346H624.012V28.4131H625.169V30.4346H628.099V31.3721H625.14V32.4121ZM630.882 33.5107H633.064V34.4922H630.882V41.1865H629.739V28.1641H630.882V33.5107ZM638.396 31.665C638.392 32.4365 638.548 33.2031 638.865 33.9648C639.183 34.7217 639.612 35.3955 640.154 35.9863C640.696 36.5771 641.287 37.0166 641.927 37.3047L641.224 38.2129C640.481 37.8467 639.808 37.3022 639.202 36.5796C638.602 35.8521 638.147 35.0269 637.84 34.104C637.537 35.0854 637.083 35.9644 636.478 36.7407C635.872 37.5122 635.188 38.0908 634.427 38.4766L633.694 37.5098C634.334 37.2119 634.925 36.7603 635.467 36.1548C636.009 35.5444 636.441 34.8462 636.763 34.0601C637.085 33.269 637.249 32.4707 637.254 31.665V29.292H638.396V31.665ZM644.505 41.2158H643.348V28.1641H644.505V41.2158Z" fill="black"/>
<path d="M718.541 40.1465C717.809 40.1465 717.154 40.022 716.578 39.7729C716.007 39.519 715.562 39.1675 715.245 38.7183C714.928 38.269 714.771 37.7588 714.776 37.1875C714.771 36.7383 714.862 36.3208 715.047 35.9351C715.238 35.5444 715.499 35.2222 715.831 34.9683C716.163 34.7144 716.529 34.5557 716.93 34.4922V34.4336C716.583 34.3506 716.278 34.1968 716.014 33.9722C715.75 33.7427 715.545 33.4619 715.399 33.1299C715.257 32.7979 715.187 32.4414 715.187 32.0605C715.187 31.5283 715.331 31.0474 715.619 30.6177C715.912 30.188 716.312 29.8535 716.82 29.6143C717.333 29.3701 717.906 29.248 718.541 29.248C719.176 29.248 719.747 29.3701 720.255 29.6143C720.768 29.8535 721.17 30.188 721.463 30.6177C721.756 31.0425 721.905 31.5234 721.91 32.0605C721.905 32.4414 721.827 32.7979 721.676 33.1299C721.529 33.4619 721.324 33.7427 721.061 33.9722C720.797 34.1968 720.494 34.3506 720.152 34.4336V34.4922C720.548 34.5557 720.909 34.7144 721.236 34.9683C721.568 35.2222 721.83 35.5444 722.02 35.9351C722.215 36.3208 722.315 36.7383 722.32 37.1875C722.315 37.7588 722.152 38.269 721.83 38.7183C721.507 39.1675 721.061 39.519 720.489 39.7729C719.918 40.022 719.269 40.1465 718.541 40.1465ZM718.541 38.9893C719.039 38.9893 719.474 38.9111 719.845 38.7549C720.216 38.5986 720.501 38.3789 720.702 38.0957C720.902 37.8125 721.002 37.4854 721.002 37.1143C721.002 36.7285 720.895 36.3818 720.68 36.0742C720.47 35.7617 720.177 35.5176 719.801 35.3418C719.43 35.166 719.01 35.0781 718.541 35.0781C718.072 35.0781 717.65 35.166 717.274 35.3418C716.898 35.5176 716.605 35.7617 716.395 36.0742C716.185 36.3818 716.085 36.7285 716.095 37.1143C716.085 37.4854 716.178 37.8125 716.373 38.0957C716.573 38.3789 716.859 38.5986 717.23 38.7549C717.601 38.9111 718.038 38.9893 718.541 38.9893ZM718.541 33.9648C718.937 33.9648 719.293 33.8892 719.61 33.7378C719.928 33.5864 720.174 33.374 720.35 33.1006C720.531 32.8271 720.621 32.5146 720.621 32.1631C720.621 31.8164 720.533 31.5088 720.357 31.2402C720.187 30.9717 719.942 30.7642 719.625 30.6177C719.312 30.4663 718.951 30.3906 718.541 30.3906C718.126 30.3906 717.76 30.4663 717.442 30.6177C717.13 30.7642 716.888 30.9717 716.717 31.2402C716.546 31.5088 716.461 31.8164 716.461 32.1631C716.461 32.5146 716.549 32.8271 716.725 33.1006C716.905 33.374 717.152 33.5864 717.464 33.7378C717.782 33.8892 718.141 33.9648 718.541 33.9648ZM727.96 32.4121C727.96 33.0957 728.099 33.7769 728.377 34.4556C728.656 35.1294 729.042 35.7373 729.535 36.2793C730.033 36.8213 730.592 37.2412 731.212 37.5391L730.538 38.4326C729.825 38.0859 729.195 37.5781 728.648 36.9092C728.106 36.2354 727.699 35.4761 727.425 34.6313C727.142 35.5347 726.712 36.3452 726.136 37.063C725.565 37.7759 724.908 38.3105 724.166 38.667L723.507 37.7734C724.137 37.4805 724.703 37.0532 725.206 36.4917C725.714 35.9302 726.112 35.2954 726.4 34.5874C726.693 33.8745 726.842 33.1494 726.847 32.4121V31.3721H723.858V30.4346H726.832V28.4131H727.989V30.4346H730.919V31.3721H727.96V32.4121ZM733.702 33.5107H735.885V34.4922H733.702V41.1865H732.56V28.1641H733.702V33.5107ZM741.217 31.665C741.212 32.4365 741.368 33.2031 741.686 33.9648C742.003 34.7217 742.433 35.3955 742.975 35.9863C743.517 36.5771 744.107 37.0166 744.747 37.3047L744.044 38.2129C743.302 37.8467 742.628 37.3022 742.022 36.5796C741.422 35.8521 740.968 35.0269 740.66 34.104C740.357 35.0854 739.903 35.9644 739.298 36.7407C738.692 37.5122 738.009 38.0908 737.247 38.4766L736.515 37.5098C737.154 37.2119 737.745 36.7603 738.287 36.1548C738.829 35.5444 739.261 34.8462 739.583 34.0601C739.906 33.269 740.069 32.4707 740.074 31.665V29.292H741.217V31.665ZM747.325 41.2158H746.168V28.1641H747.325V41.2158Z" fill="black"/>
</svg>
