<svg width="755" height="46" viewBox="0 0 755 46" fill="none" xmlns="http://www.w3.org/2000/svg">
<line x1="10" y1="9" x2="737" y2="9" stroke="#D9D9D9" stroke-width="2"/>
<line x1="16" y1="9" x2="119" y2="9" stroke="#64C6F0" stroke-width="2"/>
<circle cx="18" cy="8" r="8" fill="#64C6F0"/>
<circle cx="120" cy="8" r="8" fill="#64C6F0"/>
<circle cx="222" cy="8" r="7.5" fill="#D9D9D9" stroke="#D9D9D9"/>
<circle cx="324" cy="8" r="7.5" fill="#D9D9D9" stroke="#D9D9D9"/>
<circle cx="426" cy="8" r="7.5" fill="#D9D9D9" stroke="#D9D9D9"/>
<circle cx="528" cy="8" r="7.5" fill="#D9D9D9" stroke="#D9D9D9"/>
<circle cx="630" cy="8" r="7.5" fill="#D9D9D9" stroke="#D9D9D9"/>
<circle cx="732" cy="8" r="7.5" fill="#D9D9D9" stroke="#D9D9D9"/>
<path d="M4.49707 29.248C5.17578 29.248 5.80566 29.4043 6.38672 29.7168C6.96777 30.0244 7.44385 30.5518 7.81494 31.2988C8.19092 32.0459 8.37891 33.0371 8.37891 34.2725C8.37891 35.5127 8.21533 36.5747 7.88818 37.4585C7.56592 38.3374 7.10205 39.0063 6.49658 39.4653C5.896 39.9194 5.18066 40.1465 4.35059 40.1465C3.74023 40.1465 3.19092 40.0293 2.70264 39.7949C2.21436 39.5557 1.81396 39.2236 1.50146 38.7988C1.19385 38.374 0.996094 37.8809 0.908203 37.3193H2.21191C2.33398 37.8174 2.57812 38.2178 2.94434 38.5205C3.31055 38.8232 3.7793 38.9746 4.35059 38.9746C4.92676 38.9746 5.42236 38.8159 5.8374 38.4985C6.25732 38.1763 6.57959 37.71 6.8042 37.0996C7.02881 36.4893 7.14355 35.7568 7.14844 34.9023H7.00195C6.68945 35.3467 6.29883 35.6934 5.83008 35.9424C5.36133 36.1865 4.84863 36.3086 4.29199 36.3086C3.66211 36.3086 3.08105 36.1597 2.54883 35.8618C2.0166 35.5591 1.59424 35.1416 1.28174 34.6094C0.974121 34.0771 0.820312 33.4766 0.820312 32.8076C0.820312 32.1533 0.97168 31.5552 1.27441 31.0132C1.58203 30.4712 2.01416 30.0415 2.5708 29.7241C3.12744 29.4067 3.76953 29.248 4.49707 29.248ZM4.52637 30.4053C4.07715 30.4053 3.66699 30.5127 3.2959 30.7275C2.92969 30.9375 2.63916 31.2231 2.42432 31.5845C2.21436 31.9458 2.10938 32.3389 2.10938 32.7637C2.10938 33.208 2.20947 33.6133 2.40967 33.9795C2.60986 34.3408 2.89062 34.6265 3.25195 34.8364C3.61328 35.0464 4.02344 35.1514 4.48242 35.1514C4.93164 35.1514 5.34424 35.0415 5.72021 34.8218C6.09619 34.5972 6.39404 34.3018 6.61377 33.9355C6.8335 33.5645 6.94336 33.1738 6.94336 32.7637C6.94336 32.3584 6.83838 31.9751 6.62842 31.6138C6.41846 31.2476 6.12793 30.9546 5.75684 30.7349C5.39062 30.5151 4.98047 30.4053 4.52637 30.4053ZM14.0625 32.4121C14.0625 33.0957 14.2017 33.7769 14.48 34.4556C14.7583 35.1294 15.144 35.7373 15.6372 36.2793C16.1353 36.8213 16.6943 37.2412 17.3145 37.5391L16.6406 38.4326C15.9277 38.0859 15.2979 37.5781 14.751 36.9092C14.209 36.2354 13.8013 35.4761 13.5278 34.6313C13.2446 35.5347 12.8149 36.3452 12.2388 37.063C11.6675 37.7759 11.0107 38.3105 10.2686 38.667L9.60938 37.7734C10.2393 37.4805 10.8057 37.0532 11.3086 36.4917C11.8164 35.9302 12.2144 35.2954 12.5024 34.5874C12.7954 33.8745 12.9443 33.1494 12.9492 32.4121V31.3721H9.96094V30.4346H12.9346V28.4131H14.0918V30.4346H17.0215V31.3721H14.0625V32.4121ZM19.8047 33.5107H21.9873V34.4922H19.8047V41.1865H18.6621V28.1641H19.8047V33.5107ZM27.3193 31.665C27.3145 32.4365 27.4707 33.2031 27.7881 33.9648C28.1055 34.7217 28.5352 35.3955 29.0771 35.9863C29.6191 36.5771 30.21 37.0166 30.8496 37.3047L30.1465 38.2129C29.4043 37.8467 28.7305 37.3022 28.125 36.5796C27.5244 35.8521 27.0703 35.0269 26.7627 34.104C26.46 35.0854 26.0059 35.9644 25.4004 36.7407C24.7949 37.5122 24.1113 38.0908 23.3496 38.4766L22.6172 37.5098C23.2568 37.2119 23.8477 36.7603 24.3896 36.1548C24.9316 35.5444 25.3638 34.8462 25.686 34.0601C26.0083 33.269 26.1719 32.4707 26.1768 31.665V29.292H27.3193V31.665ZM33.4277 41.2158H32.2705V28.1641H33.4277V41.2158Z" fill="black"/>
<path d="M105.746 40H104.413V30.7715H104.354L101.776 32.4854V31.1523L104.413 29.3945H105.746V40ZM112.045 40.1465C111.264 40.1465 110.595 39.9341 110.038 39.5093C109.486 39.0845 109.064 38.4644 108.771 37.6489C108.483 36.8335 108.339 35.8496 108.339 34.6973C108.339 33.5596 108.485 32.583 108.778 31.7676C109.071 30.9473 109.496 30.3223 110.053 29.8926C110.609 29.4629 111.273 29.248 112.045 29.248C112.816 29.248 113.48 29.4629 114.037 29.8926C114.594 30.3223 115.019 30.9473 115.312 31.7676C115.604 32.583 115.751 33.5596 115.751 34.6973C115.751 35.8496 115.604 36.8335 115.312 37.6489C115.023 38.4644 114.601 39.0845 114.044 39.5093C113.488 39.9341 112.821 40.1465 112.045 40.1465ZM112.045 38.9746C112.553 38.9746 112.987 38.8086 113.349 38.4766C113.71 38.1445 113.986 37.6587 114.176 37.019C114.367 36.3794 114.462 35.6055 114.462 34.6973C114.462 33.7891 114.367 33.0127 114.176 32.3682C113.986 31.7236 113.71 31.2329 113.349 30.896C112.987 30.5591 112.553 30.3906 112.045 30.3906C111.537 30.3906 111.1 30.5591 110.734 30.896C110.373 31.2329 110.094 31.7236 109.899 32.3682C109.708 33.0127 109.613 33.7891 109.613 34.6973C109.613 35.6055 109.708 36.3794 109.899 37.019C110.089 37.6587 110.365 38.1445 110.727 38.4766C111.093 38.8086 111.532 38.9746 112.045 38.9746ZM121.376 32.4121C121.376 33.0957 121.515 33.7769 121.793 34.4556C122.072 35.1294 122.458 35.7373 122.951 36.2793C123.449 36.8213 124.008 37.2412 124.628 37.5391L123.954 38.4326C123.241 38.0859 122.611 37.5781 122.064 36.9092C121.522 36.2354 121.115 35.4761 120.841 34.6313C120.558 35.5347 120.128 36.3452 119.552 37.063C118.981 37.7759 118.324 38.3105 117.582 38.667L116.923 37.7734C117.553 37.4805 118.119 37.0532 118.622 36.4917C119.13 35.9302 119.528 35.2954 119.816 34.5874C120.109 33.8745 120.258 33.1494 120.263 32.4121V31.3721H117.274V30.4346H120.248V28.4131H121.405V30.4346H124.335V31.3721H121.376V32.4121ZM127.118 33.5107H129.301V34.4922H127.118V41.1865H125.976V28.1641H127.118V33.5107ZM134.633 31.665C134.628 32.4365 134.784 33.2031 135.102 33.9648C135.419 34.7217 135.849 35.3955 136.391 35.9863C136.933 36.5771 137.523 37.0166 138.163 37.3047L137.46 38.2129C136.718 37.8467 136.044 37.3022 135.438 36.5796C134.838 35.8521 134.384 35.0269 134.076 34.104C133.773 35.0854 133.319 35.9644 132.714 36.7407C132.108 37.5122 131.425 38.0908 130.663 38.4766L129.931 37.5098C130.57 37.2119 131.161 36.7603 131.703 36.1548C132.245 35.5444 132.677 34.8462 133 34.0601C133.322 33.269 133.485 32.4707 133.49 31.665V29.292H134.633V31.665ZM140.741 41.2158H139.584V28.1641H140.741V41.2158Z" fill="black"/>
<path d="M207.746 40H206.413V30.7715H206.354L203.776 32.4854V31.1523L206.413 29.3945H207.746V40ZM214.323 40H212.99V30.7715H212.932L210.354 32.4854V31.1523L212.99 29.3945H214.323V40ZM221.018 32.4121C221.018 33.0957 221.157 33.7769 221.435 34.4556C221.713 35.1294 222.099 35.7373 222.592 36.2793C223.09 36.8213 223.649 37.2412 224.27 37.5391L223.596 38.4326C222.883 38.0859 222.253 37.5781 221.706 36.9092C221.164 36.2354 220.756 35.4761 220.483 34.6313C220.2 35.5347 219.77 36.3452 219.194 37.063C218.623 37.7759 217.966 38.3105 217.224 38.667L216.564 37.7734C217.194 37.4805 217.761 37.0532 218.264 36.4917C218.771 35.9302 219.169 35.2954 219.458 34.5874C219.75 33.8745 219.899 33.1494 219.904 32.4121V31.3721H216.916V30.4346H219.89V28.4131H221.047V30.4346H223.977V31.3721H221.018V32.4121ZM226.76 33.5107H228.942V34.4922H226.76V41.1865H225.617V28.1641H226.76V33.5107ZM234.274 31.665C234.27 32.4365 234.426 33.2031 234.743 33.9648C235.061 34.7217 235.49 35.3955 236.032 35.9863C236.574 36.5771 237.165 37.0166 237.805 37.3047L237.102 38.2129C236.359 37.8467 235.686 37.3022 235.08 36.5796C234.479 35.8521 234.025 35.0269 233.718 34.104C233.415 35.0854 232.961 35.9644 232.355 36.7407C231.75 37.5122 231.066 38.0908 230.305 38.4766L229.572 37.5098C230.212 37.2119 230.803 36.7603 231.345 36.1548C231.887 35.5444 232.319 34.8462 232.641 34.0601C232.963 33.269 233.127 32.4707 233.132 31.665V29.292H234.274V31.665ZM240.383 41.2158H239.226V28.1641H240.383V41.2158Z" fill="black"/>
<path d="M309.746 40H308.413V30.7715H308.354L305.776 32.4854V31.1523L308.413 29.3945H309.746V40ZM312.559 39.0332L316.177 35.2246C316.655 34.7217 317.019 34.3164 317.268 34.0088C317.522 33.6963 317.712 33.396 317.839 33.1079C317.971 32.8149 318.037 32.5098 318.037 32.1924C318.037 31.8408 317.944 31.5283 317.759 31.2549C317.573 30.9814 317.319 30.769 316.997 30.6177C316.68 30.4663 316.323 30.3906 315.928 30.3906C315.513 30.3906 315.149 30.4736 314.836 30.6396C314.524 30.8057 314.282 31.04 314.111 31.3428C313.945 31.6455 313.862 31.9922 313.862 32.3828H312.617C312.612 31.7676 312.754 31.2231 313.042 30.7495C313.335 30.2759 313.738 29.9072 314.25 29.6436C314.763 29.3799 315.337 29.248 315.972 29.248C316.602 29.248 317.166 29.3774 317.664 29.6362C318.167 29.895 318.56 30.249 318.843 30.6982C319.126 31.1475 319.268 31.6455 319.268 32.1924C319.268 32.5977 319.194 32.9858 319.048 33.3569C318.901 33.7231 318.655 34.1309 318.308 34.5801C317.966 35.0244 317.476 35.5762 316.836 36.2354L314.404 38.7402V38.8281H319.458V40H312.573L312.559 39.0332ZM325.244 32.4121C325.244 33.0957 325.383 33.7769 325.662 34.4556C325.94 35.1294 326.326 35.7373 326.819 36.2793C327.317 36.8213 327.876 37.2412 328.496 37.5391L327.822 38.4326C327.109 38.0859 326.479 37.5781 325.933 36.9092C325.391 36.2354 324.983 35.4761 324.709 34.6313C324.426 35.5347 323.997 36.3452 323.42 37.063C322.849 37.7759 322.192 38.3105 321.45 38.667L320.791 37.7734C321.421 37.4805 321.987 37.0532 322.49 36.4917C322.998 35.9302 323.396 35.2954 323.684 34.5874C323.977 33.8745 324.126 33.1494 324.131 32.4121V31.3721H321.143V30.4346H324.116V28.4131H325.273V30.4346H328.203V31.3721H325.244V32.4121ZM330.986 33.5107H333.169V34.4922H330.986V41.1865H329.844V28.1641H330.986V33.5107ZM338.501 31.665C338.496 32.4365 338.652 33.2031 338.97 33.9648C339.287 34.7217 339.717 35.3955 340.259 35.9863C340.801 36.5771 341.392 37.0166 342.031 37.3047L341.328 38.2129C340.586 37.8467 339.912 37.3022 339.307 36.5796C338.706 35.8521 338.252 35.0269 337.944 34.104C337.642 35.0854 337.188 35.9644 336.582 36.7407C335.977 37.5122 335.293 38.0908 334.531 38.4766L333.799 37.5098C334.438 37.2119 335.029 36.7603 335.571 36.1548C336.113 35.5444 336.545 34.8462 336.868 34.0601C337.19 33.269 337.354 32.4707 337.358 31.665V29.292H338.501V31.665ZM344.609 41.2158H343.452V28.1641H344.609V41.2158Z" fill="black"/>
<path d="M411.746 40H410.413V30.7715H410.354L407.776 32.4854V31.1523L410.413 29.3945H411.746V40ZM418.235 40.1465C417.537 40.1465 416.912 40.0293 416.36 39.7949C415.813 39.5605 415.379 39.231 415.057 38.8062C414.739 38.3813 414.568 37.8906 414.544 37.334H415.877C415.901 37.6611 416.019 37.9492 416.229 38.1982C416.443 38.4473 416.724 38.6401 417.071 38.7769C417.417 38.9087 417.801 38.9746 418.221 38.9746C418.68 38.9746 419.092 38.8965 419.458 38.7402C419.83 38.5791 420.118 38.3594 420.323 38.0811C420.533 37.7979 420.638 37.4756 420.638 37.1143C420.638 36.7236 420.535 36.3794 420.33 36.0815C420.13 35.7837 419.837 35.5518 419.451 35.3857C419.065 35.2197 418.602 35.1367 418.06 35.1367H417.195V33.9795H418.06C418.484 33.9795 418.863 33.9038 419.195 33.7524C419.527 33.6011 419.783 33.3887 419.964 33.1152C420.149 32.8418 420.242 32.5244 420.242 32.1631C420.242 31.8164 420.159 31.5088 419.993 31.2402C419.832 30.9717 419.603 30.7642 419.305 30.6177C419.007 30.4663 418.66 30.3906 418.265 30.3906C417.884 30.3906 417.527 30.459 417.195 30.5957C416.863 30.7324 416.592 30.9277 416.382 31.1816C416.172 31.4307 416.058 31.7236 416.038 32.0605H414.764C414.788 31.5137 414.959 31.0278 415.276 30.603C415.594 30.1733 416.016 29.8413 416.543 29.6069C417.071 29.3677 417.649 29.248 418.279 29.248C418.934 29.248 419.505 29.3774 419.993 29.6362C420.486 29.8901 420.865 30.2344 421.128 30.6689C421.392 31.1035 421.521 31.5771 421.517 32.0898C421.521 32.6855 421.363 33.1958 421.041 33.6206C420.718 34.0454 420.276 34.3359 419.715 34.4922V34.5654C420.169 34.6387 420.562 34.7925 420.894 35.0269C421.231 35.2563 421.487 35.5518 421.663 35.9131C421.844 36.2695 421.932 36.6699 421.927 37.1143C421.932 37.6855 421.773 38.2031 421.451 38.667C421.128 39.126 420.684 39.4873 420.118 39.751C419.556 40.0146 418.929 40.1465 418.235 40.1465ZM427.698 32.4121C427.698 33.0957 427.837 33.7769 428.116 34.4556C428.394 35.1294 428.78 35.7373 429.273 36.2793C429.771 36.8213 430.33 37.2412 430.95 37.5391L430.276 38.4326C429.563 38.0859 428.934 37.5781 428.387 36.9092C427.845 36.2354 427.437 35.4761 427.164 34.6313C426.88 35.5347 426.451 36.3452 425.875 37.063C425.303 37.7759 424.646 38.3105 423.904 38.667L423.245 37.7734C423.875 37.4805 424.441 37.0532 424.944 36.4917C425.452 35.9302 425.85 35.2954 426.138 34.5874C426.431 33.8745 426.58 33.1494 426.585 32.4121V31.3721H423.597V30.4346H426.57V28.4131H427.728V30.4346H430.657V31.3721H427.698V32.4121ZM433.44 33.5107H435.623V34.4922H433.44V41.1865H432.298V28.1641H433.44V33.5107ZM440.955 31.665C440.95 32.4365 441.106 33.2031 441.424 33.9648C441.741 34.7217 442.171 35.3955 442.713 35.9863C443.255 36.5771 443.846 37.0166 444.485 37.3047L443.782 38.2129C443.04 37.8467 442.366 37.3022 441.761 36.5796C441.16 35.8521 440.706 35.0269 440.398 34.104C440.096 35.0854 439.642 35.9644 439.036 36.7407C438.431 37.5122 437.747 38.0908 436.985 38.4766L436.253 37.5098C436.893 37.2119 437.483 36.7603 438.025 36.1548C438.567 35.5444 439 34.8462 439.322 34.0601C439.644 33.269 439.808 32.4707 439.812 31.665V29.292H440.955V31.665ZM447.063 41.2158H445.906V28.1641H447.063V41.2158Z" fill="black"/>
<path d="M513.746 40H512.413V30.7715H512.354L509.776 32.4854V31.1523L512.413 29.3945H513.746V40ZM516.31 36.748L521.085 29.3945H522.711V36.6748H524.19V37.832H522.711V40H521.451V37.832H516.31V36.748ZM521.451 36.6748V31.0645H521.319L517.73 36.5869V36.6748H521.451ZM529.801 32.4121C529.801 33.0957 529.94 33.7769 530.218 34.4556C530.497 35.1294 530.882 35.7373 531.375 36.2793C531.874 36.8213 532.433 37.2412 533.053 37.5391L532.379 38.4326C531.666 38.0859 531.036 37.5781 530.489 36.9092C529.947 36.2354 529.54 35.4761 529.266 34.6313C528.983 35.5347 528.553 36.3452 527.977 37.063C527.406 37.7759 526.749 38.3105 526.007 38.667L525.348 37.7734C525.978 37.4805 526.544 37.0532 527.047 36.4917C527.555 35.9302 527.953 35.2954 528.241 34.5874C528.534 33.8745 528.683 33.1494 528.688 32.4121V31.3721H525.699V30.4346H528.673V28.4131H529.83V30.4346H532.76V31.3721H529.801V32.4121ZM535.543 33.5107H537.726V34.4922H535.543V41.1865H534.4V28.1641H535.543V33.5107ZM543.058 31.665C543.053 32.4365 543.209 33.2031 543.526 33.9648C543.844 34.7217 544.273 35.3955 544.815 35.9863C545.357 36.5771 545.948 37.0166 546.588 37.3047L545.885 38.2129C545.143 37.8467 544.469 37.3022 543.863 36.5796C543.263 35.8521 542.809 35.0269 542.501 34.104C542.198 35.0854 541.744 35.9644 541.139 36.7407C540.533 37.5122 539.85 38.0908 539.088 38.4766L538.355 37.5098C538.995 37.2119 539.586 36.7603 540.128 36.1548C540.67 35.5444 541.102 34.8462 541.424 34.0601C541.747 33.269 541.91 32.4707 541.915 31.665V29.292H543.058V31.665ZM549.166 41.2158H548.009V28.1641H549.166V41.2158Z" fill="black"/>
<path d="M615.746 40H614.413V30.7715H614.354L611.776 32.4854V31.1523L614.413 29.3945H615.746V40ZM622.03 40.1465C621.4 40.1465 620.827 40.0269 620.309 39.7876C619.796 39.5435 619.386 39.209 619.079 38.7842C618.776 38.3545 618.612 37.8711 618.588 37.334H619.862C619.896 37.6465 620.014 37.9297 620.214 38.1836C620.414 38.4326 620.673 38.6304 620.99 38.7769C621.308 38.9185 621.654 38.9893 622.03 38.9893C622.479 38.9893 622.885 38.8867 623.246 38.6816C623.607 38.4766 623.891 38.1958 624.096 37.8394C624.301 37.4829 624.403 37.085 624.403 36.6455C624.403 36.1914 624.296 35.7837 624.081 35.4224C623.871 35.0562 623.578 34.7705 623.202 34.5654C622.831 34.3555 622.411 34.248 621.942 34.2432C621 34.2285 620.341 34.5459 619.965 35.1953H618.69L619.438 29.3945H625.18V30.5664H620.536L620.141 33.6719H620.243C620.482 33.4863 620.773 33.3374 621.115 33.2251C621.457 33.1128 621.811 33.0566 622.177 33.0566C622.841 33.0566 623.439 33.2104 623.971 33.5181C624.508 33.8208 624.928 34.2432 625.231 34.7852C625.539 35.3271 625.692 35.9375 625.692 36.6162C625.692 37.29 625.534 37.8955 625.216 38.4326C624.899 38.9697 624.462 39.3896 623.905 39.6924C623.349 39.9951 622.724 40.1465 622.03 40.1465ZM631.391 32.4121C631.391 33.0957 631.53 33.7769 631.808 34.4556C632.086 35.1294 632.472 35.7373 632.965 36.2793C633.463 36.8213 634.022 37.2412 634.643 37.5391L633.969 38.4326C633.256 38.0859 632.626 37.5781 632.079 36.9092C631.537 36.2354 631.129 35.4761 630.856 34.6313C630.573 35.5347 630.143 36.3452 629.567 37.063C628.996 37.7759 628.339 38.3105 627.597 38.667L626.938 37.7734C627.567 37.4805 628.134 37.0532 628.637 36.4917C629.145 35.9302 629.542 35.2954 629.831 34.5874C630.124 33.8745 630.272 33.1494 630.277 32.4121V31.3721H627.289V30.4346H630.263V28.4131H631.42V30.4346H634.35V31.3721H631.391V32.4121ZM637.133 33.5107H639.315V34.4922H637.133V41.1865H635.99V28.1641H637.133V33.5107ZM644.647 31.665C644.643 32.4365 644.799 33.2031 645.116 33.9648C645.434 34.7217 645.863 35.3955 646.405 35.9863C646.947 36.5771 647.538 37.0166 648.178 37.3047L647.475 38.2129C646.732 37.8467 646.059 37.3022 645.453 36.5796C644.853 35.8521 644.398 35.0269 644.091 34.104C643.788 35.0854 643.334 35.9644 642.729 36.7407C642.123 37.5122 641.439 38.0908 640.678 38.4766L639.945 37.5098C640.585 37.2119 641.176 36.7603 641.718 36.1548C642.26 35.5444 642.692 34.8462 643.014 34.0601C643.336 33.269 643.5 32.4707 643.505 31.665V29.292H644.647V31.665ZM650.756 41.2158H649.599V28.1641H650.756V41.2158Z" fill="black"/>
<path d="M717.746 40H716.413V30.7715H716.354L713.776 32.4854V31.1523L716.413 29.3945H717.746V40ZM724.294 40.1465C723.61 40.1465 722.976 39.9927 722.39 39.6851C721.809 39.3726 721.33 38.8428 720.954 38.0957C720.583 37.3438 720.397 36.3477 720.397 35.1074C720.397 33.8721 720.559 32.8149 720.881 31.936C721.208 31.0571 721.672 30.3906 722.272 29.9365C722.878 29.4775 723.596 29.248 724.426 29.248C725.036 29.248 725.583 29.3652 726.066 29.5996C726.555 29.834 726.953 30.1636 727.26 30.5884C727.573 31.0132 727.775 31.5039 727.868 32.0605H726.564C726.433 31.5674 726.184 31.1719 725.817 30.874C725.456 30.5713 724.992 30.4199 724.426 30.4199C723.85 30.4199 723.352 30.5811 722.932 30.9033C722.517 31.2207 722.197 31.6821 721.972 32.2876C721.752 32.8931 721.643 33.6182 721.643 34.4629H721.774C722.087 34.0186 722.478 33.6743 722.946 33.4302C723.415 33.1812 723.933 33.0566 724.499 33.0566C725.124 33.0566 725.7 33.208 726.228 33.5107C726.76 33.8135 727.18 34.2334 727.487 34.7705C727.8 35.3027 727.956 35.9033 727.956 36.5723C727.956 37.2314 727.802 37.8345 727.495 38.3813C727.192 38.9233 726.762 39.353 726.206 39.6704C725.649 39.9878 725.012 40.1465 724.294 40.1465ZM724.265 38.9893C724.714 38.9893 725.122 38.8818 725.488 38.667C725.854 38.4521 726.142 38.1616 726.352 37.7954C726.567 37.4243 726.677 37.0215 726.682 36.5869C726.677 36.1523 726.572 35.7544 726.367 35.3931C726.162 35.0317 725.878 34.7461 725.517 34.5361C725.156 34.3213 724.748 34.2139 724.294 34.2139C723.84 34.2139 723.425 34.3237 723.049 34.5435C722.673 34.7632 722.375 35.0586 722.155 35.4297C721.936 35.7959 721.823 36.1865 721.818 36.6016C721.818 37.0166 721.923 37.4072 722.133 37.7734C722.348 38.1396 722.641 38.4351 723.012 38.6597C723.388 38.8794 723.806 38.9893 724.265 38.9893ZM733.64 32.4121C733.64 33.0957 733.779 33.7769 734.057 34.4556C734.335 35.1294 734.721 35.7373 735.214 36.2793C735.712 36.8213 736.271 37.2412 736.892 37.5391L736.218 38.4326C735.505 38.0859 734.875 37.5781 734.328 36.9092C733.786 36.2354 733.378 35.4761 733.105 34.6313C732.822 35.5347 732.392 36.3452 731.816 37.063C731.245 37.7759 730.588 38.3105 729.846 38.667L729.187 37.7734C729.816 37.4805 730.383 37.0532 730.886 36.4917C731.394 35.9302 731.792 35.2954 732.08 34.5874C732.373 33.8745 732.521 33.1494 732.526 32.4121V31.3721H729.538V30.4346H732.512V28.4131H733.669V30.4346H736.599V31.3721H733.64V32.4121ZM739.382 33.5107H741.564V34.4922H739.382V41.1865H738.239V28.1641H739.382V33.5107ZM746.896 31.665C746.892 32.4365 747.048 33.2031 747.365 33.9648C747.683 34.7217 748.112 35.3955 748.654 35.9863C749.196 36.5771 749.787 37.0166 750.427 37.3047L749.724 38.2129C748.981 37.8467 748.308 37.3022 747.702 36.5796C747.102 35.8521 746.647 35.0269 746.34 34.104C746.037 35.0854 745.583 35.9644 744.978 36.7407C744.372 37.5122 743.688 38.0908 742.927 38.4766L742.194 37.5098C742.834 37.2119 743.425 36.7603 743.967 36.1548C744.509 35.5444 744.941 34.8462 745.263 34.0601C745.585 33.269 745.749 32.4707 745.754 31.665V29.292H746.896V31.665ZM753.005 41.2158H751.848V28.1641H753.005V41.2158Z" fill="black"/>
</svg>
