<svg width="250" height="340" viewBox="0 0 250 340" fill="none" xmlns="http://www.w3.org/2000/svg">
<path opacity="0.3" d="M5.61548 151.405C-23.2216 107.57 -13.0333 48.276 26.7957 8.49163C-41.0342 30.8234 -90 94.6934 -90 170C-90 263.888 -13.8884 340 80 340C145.379 340 202.139 303.093 230.58 248.977C234.331 224.881 229.343 199.044 214.638 176.691C184.872 131.444 126.237 117.108 81.7322 143.38L76.4411 135.337C125.23 106.255 189.699 121.909 222.385 171.595C233.375 188.301 239.409 206.784 240.829 225.226C246.773 207.91 250 189.332 250 170C250 76.1116 173.888 0 80 0C68.9914 0 58.2272 1.04639 47.8014 3.04512C0.279716 38.4828 -14.7459 100.77 14.6534 145.46C44.4192 190.708 108.779 201.278 160.471 170.277L165.762 178.32C109.072 212.6 38.301 201.091 5.61548 151.405Z" fill="#81D1F3"/>
</svg>
