<svg width="340" height="340" viewBox="0 0 340 340" fill="none" xmlns="http://www.w3.org/2000/svg">
<path opacity="0.3" d="M95.6155 151.405C66.7784 107.57 76.9667 48.276 116.796 8.49163C48.9658 30.8234 0 94.6934 0 170C0 263.888 76.1116 340 170 340C235.379 340 292.139 303.093 320.58 248.977C324.331 224.881 319.343 199.044 304.638 176.691C274.872 131.444 216.237 117.108 171.732 143.38L166.441 135.337C215.23 106.255 279.699 121.909 312.385 171.595C323.375 188.301 329.409 206.784 330.829 225.226C336.773 207.91 340 189.332 340 170C340 76.1116 263.888 0 170 0C158.991 0 148.227 1.04639 137.801 3.04512C90.2797 38.4828 75.2541 100.77 104.653 145.46C134.419 190.708 198.779 201.278 250.471 170.277L255.762 178.32C199.072 212.6 128.301 201.091 95.6155 151.405Z" fill="#C3E9F9"/>
</svg>
