<svg width="111" height="38" viewBox="0 0 111 38" fill="none" xmlns="http://www.w3.org/2000/svg">
<path fill-rule="evenodd" clip-rule="evenodd" d="M10.5895 16.9407C7.39574 12.0858 8.52409 5.51903 12.9352 1.11288C5.42298 3.58614 0 10.6598 0 19C0 29.3982 8.4294 37.8276 18.8276 37.8276C26.0684 37.8276 32.3545 33.7401 35.5044 27.7467C35.9198 25.0781 35.3674 22.2167 33.7388 19.7411C30.4423 14.7299 23.9483 13.1422 19.0194 16.0519L18.4335 15.1611C23.8368 11.9403 30.9769 13.6739 34.5968 19.1767C35.814 21.0269 36.4823 23.0739 36.6395 25.1163C37.2978 23.1986 37.6552 21.141 37.6552 19C37.6552 8.60182 29.2258 0.172424 18.8276 0.172424C17.6084 0.172424 16.4162 0.288313 15.2616 0.509677C9.99851 4.43441 8.33443 11.3327 11.5904 16.2822C14.887 21.2934 22.0148 22.4641 27.7397 19.0307L28.3257 19.9215C22.0474 23.7179 14.2094 22.4434 10.5895 16.9407Z" fill="#64C6F0"/>
<path d="M58.0087 10.959C58.0087 12.0658 58.322 13.1481 58.9486 14.2061C59.5834 15.264 60.4989 16.1836 61.6952 16.9648C62.8996 17.7461 64.3075 18.2751 65.9188 18.5518L64.5516 21.1396C62.6473 20.7653 60.9872 20.0695 59.5712 19.0522C58.1633 18.035 57.0931 16.798 56.3607 15.3413C55.612 16.7899 54.5297 18.0228 53.1136 19.04C51.7058 20.0573 50.0578 20.7572 48.1698 21.1396L46.827 18.5518C48.4139 18.2669 49.8015 17.7339 50.9896 16.9526C52.1778 16.1714 53.0892 15.2518 53.724 14.1938C54.3588 13.1278 54.6802 12.0495 54.6884 10.959V9.34766H58.0087V10.959ZM66.6512 27.5117H46.3143V24.9482H66.6512V27.5117ZM86.036 21.5059H79.6395V25.2656H88.2577V27.7559H67.9208V25.2656H76.4901V21.5059H70.3134V9.56738H85.8651V12.0576H73.4872V14.2793H85.3524V16.7207H73.4872V19.04H86.036V21.5059ZM108.131 21.5547H105.006V8.05371H108.131V21.5547ZM100.977 16.0859H93.7509V18.0879C95.7203 18.0716 97.4089 18.0228 98.8168 17.9414C100.225 17.8519 101.645 17.6973 103.077 17.4775L103.468 19.9678C101.856 20.2282 100.253 20.4032 98.6581 20.4927C97.063 20.5822 95.0611 20.627 92.6522 20.627H90.6991V13.7666H97.8768V11.8623H90.6747V9.34766H100.977V16.0859ZM100.587 21.9209C102.174 21.9209 103.541 22.0837 104.688 22.4092C105.836 22.7266 106.719 23.1986 107.337 23.8252C107.956 24.4437 108.269 25.1924 108.277 26.0713C108.269 26.9421 107.956 27.6908 107.337 28.3174C106.719 28.944 105.832 29.4201 104.676 29.7456C103.529 30.0793 102.166 30.2461 100.587 30.2461C99.0162 30.2461 97.6571 30.0793 96.5096 29.7456C95.3622 29.4201 94.4792 28.944 93.8607 28.3174C93.2504 27.6908 92.9452 26.9421 92.9452 26.0713C92.9452 25.1924 93.2504 24.4437 93.8607 23.8252C94.4792 23.1986 95.3581 22.7266 96.4974 22.4092C97.6449 22.0837 99.008 21.9209 100.587 21.9209ZM100.587 24.3379C97.5594 24.3379 96.0458 24.9157 96.0458 26.0713C96.0458 26.6572 96.4283 27.0967 97.1932 27.3896C97.9582 27.6826 99.0894 27.8291 100.587 27.8291C102.084 27.8291 103.215 27.6826 103.98 27.3896C104.753 27.0967 105.144 26.6572 105.152 26.0713C105.128 24.9157 103.606 24.3379 100.587 24.3379Z" fill="#030712"/>
</svg>
